# xmcd
#
# Track frame offsets: 
#        150
#        11253
#        26652
#        38853
#        55881
#        71484
#        88685
#        102712
#        120553
#        134563
#        147424
#        162997
#        176810
#        191889
#        205590
#        222936
#        236167
#        249464
#        265043
#        273878
#
# Disc length: 3856 seconds
#
# Revision: 0
# Processed by: cddbd v1.5.1PL0 Copyright (c) Steve Scherf et al.
# Submitted via: ExactAudioCopy v0.90b2
#
DISCID=2b0f0e14
DTITLE=Various Artist - Absolute Danseband Vol II
DYEAR=2005
DGENRE=Country
TTITLE0=Vikingarna - Våran lilla hemlighet
TTITLE1=Lasse Stefanz - Världens Lyckligaste par
TTITLE2=Ole Ivars - Kalle med fela
TTITLE3=Steinar Engelbrektson Band - Bagateller
TTITLE4=Barbados - Hold me
TTITLE5=Matz Bladhs - Vid silverfossens Strand
TTITLE6=Trond Erics - Cheerio min venn
TTITLE7=Streaplers - Till min kära
TTITLE8=Arvingarna - De ensammas Promenad
TTITLE9=Holmsve - Har du løst, Har du lov
TTITLE10=Paul Shalin - Guenerina
TTITLE11=Ingemars - Hæffer sker vi slerve og skravle
TTITLE12=Säwes - Paloma blanca
TTITLE13=Vikingarna - Du försvann som en vind
TTITLE14=Jenny Jensen and Septimus - My lady
TTITLE15=Janne Önnerud - Kärlekens hus
TTITLE16=Stefan Borsch - En liten fågel
TTITLE17=Picazzo - Dagen er en gave
TTITLE18=Flamingokvintetten - Kärleksbrev i sanden
TTITLE19=Anne Nørdsti - Nyt meg fra veggen i ramme og glass
EXTD=
EXTT0=
EXTT1=
EXTT2=
EXTT3=
EXTT4=
EXTT5=
EXTT6=
EXTT7=
EXTT8=
EXTT9=
EXTT10=
EXTT11=
EXTT12=
EXTT13=
EXTT14=
EXTT15=
EXTT16=
EXTT17=
EXTT18=
EXTT19=
PLAYORDER=
